<?xml version="1.0" standalone="no"?>
<!DOCTYPE svg PUBLIC "-//W3C//DTD SVG 20010904//EN"
 "http://www.w3.org/TR/2001/REC-SVG-20010904/DTD/svg10.dtd">
<svg version="1.0" xmlns="http://www.w3.org/2000/svg"
 width="900.000000pt" height="867.000000pt" viewBox="0 0 900.000000 867.000000"
 preserveAspectRatio="xMidYMid meet">
<metadata>
Created by potrace 1.10, written by Peter Selinger 2001-2011
</metadata>
<g transform="translate(0.000000,867.000000) scale(0.100000,-0.100000)"
fill="#000000" stroke="none">
<path d="M1318 7815 c-13 -5 -43 -23 -66 -40 -33 -24 -41 -34 -36 -50 4 -11 9
-663 11 -1450 3 -1081 7 -1432 16 -1437 7 -4 129 -8 273 -8 194 0 265 3 277
13 17 11 18 87 20 1184 l2 1172 23 23 c22 22 29 23 280 28 141 3 271 2 288 -3
19 -4 35 -17 42 -33 9 -18 12 -329 12 -1192 0 -895 3 -1171 12 -1180 9 -9 220
-12 890 -12 l878 0 15 -23 c14 -21 15 -126 13 -911 -3 -865 -3 -888 -22 -902
-17 -12 -153 -14 -884 -14 -576 0 -870 -3 -883 -10 -18 -10 -19 -24 -19 -268
0 -217 2 -261 16 -280 l15 -22 1139 0 c672 0 1149 4 1163 9 13 5 27 17 31 27
13 33 9 2915 -4 2928 -8 8 -253 12 -891 16 l-881 5 -19 24 c-18 22 -19 52 -19
906 0 854 1 884 19 906 l19 24 596 3 595 2 16 -29 c12 -25 15 -77 15 -301 0
-257 -1 -271 -20 -290 -19 -19 -33 -20 -290 -20 l-270 0 -10 -26 c-13 -33 -13
-475 0 -508 l10 -26 558 0 c421 0 561 3 570 12 9 9 12 146 12 555 0 596 1 602
57 624 20 7 193 9 578 4 363 -4 555 -3 565 4 12 8 14 54 15 280 0 168 -4 274
-10 280 -14 14 -4685 20 -4717 6z"/>
<path d="M6712 7808 c-19 -19 -17 -518 2 -544 14 -18 26 -19 261 -16 265 4
294 0 314 -44 7 -17 11 -115 11 -293 0 -238 -2 -270 -17 -282 -13 -12 -171
-15 -902 -19 l-885 -5 -7 -25 c-12 -42 -10 -1709 1 -1731 10 -18 24 -19 275
-19 251 0 265 1 275 19 6 13 10 218 10 595 l0 576 24 15 c21 14 90 16 604 13
554 -3 581 -4 601 -22 21 -19 21 -26 21 -361 0 -279 -3 -345 -14 -361 -13 -18
-32 -19 -293 -24 -153 -3 -284 -9 -290 -13 -10 -6 -13 -62 -13 -225 0 -219 8
-288 32 -303 7 -5 131 -9 276 -9 249 0 263 -1 282 -20 20 -20 20 -33 20 -850
l0 -831 -25 -24 -24 -25 -585 0 c-506 0 -587 2 -600 15 -23 23 -29 108 -24
350 3 164 8 228 17 239 12 14 54 16 333 16 316 0 350 3 370 34 4 6 8 126 8
267 0 235 -1 257 -18 272 -17 15 -75 17 -629 17 -556 0 -612 -1 -624 -17 -12
-13 -14 -162 -14 -874 0 -836 0 -857 20 -879 l19 -21 870 2 870 1 18 -22 c16
-20 18 -47 18 -299 0 -224 -3 -281 -14 -297 -14 -19 -55 -19 -2719 -22 l-2704
-2 -27 21 -26 21 2 880 3 881 28 21 c28 21 30 21 897 21 710 1 871 3 884 14
14 12 16 47 16 282 0 255 -1 269 -19 279 -13 7 -401 10 -1186 10 -785 0 -1173
-3 -1186 -10 -19 -11 -19 -38 -19 -1480 l0 -1470 24 -15 c22 -14 88 -15 648
-8 721 8 2026 9 4310 3 1318 -4 1619 -3 1630 8 11 11 13 617 16 3288 1 2252
-1 3281 -8 3295 -10 18 -26 19 -568 19 -421 0 -561 -3 -570 -12z"/>
</g>
</svg>
